[center][img]http://i.imgur.com/OaNEr.jpg[/img]

Apollo 18 2011 R5 LiNE XviD - MiSTERE
 
http://www.imdb.com/title/tt1772240/

Video
ID                               : 0
Format                           : MPEG-4 Visual
Format profile                   : Advanced Simple@L5
Format settings, BVOP            : 2
Format settings, QPel            : No
Format settings, GMC             : No warppoints
Format settings, Matrix          : Default (H.263)
Muxing mode                      : Packed bitstream
Codec ID                         : XVID
Codec ID/Hint                    : XviD
Duration                         : 1h 23mn
Bit rate                         : 2 221 Kbps
Width                            : 720 pixels
Height                           : 356 pixels
Display aspect ratio             : 2.022
Frame rate                       : 25.000 fps
Color space                      : YUV
Chroma subsampling               : 4:2:0
Bit depth                        : 8 bits
Scan type                        : Progressive
Compression mode                 : Lossy
Bits/(Pixel*Frame)               : 0.347
Stream size                      : 1.29 GiB (94%)
Writing library                  : XviD 64

Audio
ID                               : 1
Format                           : MPEG Audio
Format version                   : Version 1
Format profile                   : Layer 3
Mode                             : Joint stereo
Mode extension                   : MS Stereo
Codec ID                         : 55
Codec ID/Hint                    : MP3
Duration                         : 1h 23mn
Bit rate mode                    : Constant
Bit rate                         : 128 Kbps
Channel(s)                       : 2 channels
Sampling rate                    : 44.1 KHz
Compression mode                 : Lossy
Stream size                      : 76.1 MiB (5%)
Alignment                        : Split accross interleaves
Interleave, duration             : 40 ms (1.00 video frame)



Cropped Resized Sharpen and tweaked RGB
AR changes constanly, 
supposed to be that way so it is


[img]http://i.imgur.com/OzJBr.png[/img]
[img]http://i.imgur.com/KjGLy.png[/img]
[img]http://i.imgur.com/FhlpB.png[/img]
[img]http://i.imgur.com/yltLW.png[/img]
[img]http://i.imgur.com/XnXlC.png[/img]
[img]http://i.imgur.com/T9E7x.png[/img]
[img]http://i.imgur.com/aj5Ed.png[/img]
[/center]